<svg xmlns="http://www.w3.org/2000/svg" viewBox="0 0 512 512">
  <rect width="512" height="512" rx="96" fill="#0f0f0f"/>
  <rect x="80" y="200" width="352" height="112" rx="16" fill="#1e1e2e"/>
  <!-- slider track -->
  <rect x="100" y="249" width="312" height="14" rx="7" fill="#2a2a3e"/>
  <rect x="100" y="249" width="190" height="14" rx="7" fill="#6366f1"/>
  <circle cx="290" cy="256" r="18" fill="#6366f1"/>
  <!-- media buttons -->
  <circle cx="164" cy="340" r="32" fill="#1e1e2e"/>
  <polygon points="154,328 154,352 176,340" fill="#6366f1"/>
  <circle cx="256" cy="340" r="32" fill="#6366f1"/>
  <rect x="246" y="328" width="9" height="24" rx="3" fill="#fff"/>
  <rect x="261" y="328" width="9" height="24" rx="3" fill="#fff"/>
  <circle cx="348" cy="340" r="32" fill="#1e1e2e"/>
  <polygon points="340,328 362,340 340,352" fill="#6366f1"/>
  <!-- vol icon -->
  <path d="M140 230 L160 218 L160 242 Z" fill="#6366f1"/>
  <path d="M165 212 Q185 230 165 248" stroke="#6366f1" stroke-width="8" fill="none" stroke-linecap="round"/>
  <path d="M172 204 Q202 230 172 256" stroke="#6366f1" stroke-width="6" fill="none" stroke-linecap="round" opacity="0.5"/>
</svg>
